<svg version="1.1" id="Layer_1" xmlns="http://www.w3.org/2000/svg" xmlns:xlink="http://www.w3.org/1999/xlink" x="0px" y="0px"
	 width="100%" viewBox="0 0 2000 2000" enable-background="new 0 0 2000 2000" xml:space="preserve">
<path fill="#000000" opacity="1.000000" stroke="none" 
	d="
M974.000000,2001.000000 
	C649.333313,2001.000000 325.166656,2001.000000 1.000000,2001.000000 
	C1.000000,1334.333374 1.000000,667.666687 1.000000,1.000000 
	C667.666687,1.000000 1334.333374,1.000000 2001.000000,1.000000 
	C2001.000000,667.666687 2001.000000,1334.333374 2001.000000,2001.000000 
	C1658.833374,2001.000000 1316.666626,2001.000000 974.000000,2001.000000 
M1304.000000,761.500000 
	C1273.124390,730.624451 1242.106689,699.889221 1211.441040,668.806396 
	C1198.604980,655.795715 1184.312988,645.336365 1167.599365,637.771057 
	C1150.116821,629.857666 1131.733032,626.580750 1112.919067,626.267578 
	C1102.792969,626.099060 1092.424194,627.836548 1082.509033,630.173462 
	C1058.480591,635.836487 1037.193604,646.926392 1019.730957,664.753723 
	C1012.889526,671.738037 1012.807251,680.312500 1019.640564,687.145752 
	C1046.628174,714.133362 1073.619141,741.117554 1100.606567,768.105286 
	C1101.665527,769.164246 1102.692139,770.255554 1103.750000,771.315674 
	C1112.019531,779.602844 1120.310425,787.868896 1128.559326,796.176575 
	C1134.142456,801.799500 1139.668213,807.479126 1145.539185,813.458740 
	C1116.803101,841.691101 1088.281006,869.636047 1059.852905,897.676453 
	C1046.089722,911.251770 1032.247925,924.764099 1018.953979,938.790466 
	C1013.064270,945.004578 1011.618042,951.762512 1017.489258,958.798645 
	C1021.285339,963.347961 1025.956543,967.246216 1030.581665,971.010986 
	C1052.152466,988.569763 1077.249634,997.420349 1104.657593,999.915344 
	C1119.135498,1001.233276 1133.567261,999.452087 1147.518066,995.659729 
	C1171.332275,989.185974 1192.263916,977.151184 1209.715698,959.684753 
	C1254.669189,914.693604 1299.371582,869.451538 1344.184326,824.319763 
	C1351.358765,817.094360 1351.358765,808.883545 1344.089355,801.605225 
	C1330.898438,788.398010 1317.697021,775.201172 1304.000000,761.500000 
M764.500000,691.000000 
	C727.738953,727.761780 690.977478,764.523132 654.217163,801.285645 
	C646.717529,808.785828 646.749817,817.251648 654.309082,824.810852 
	C686.712158,857.213928 719.117554,889.614746 751.520447,922.018005 
	C755.552246,926.049805 759.754700,929.928528 763.569397,934.156738 
	C778.889587,951.137573 794.823608,967.363770 814.252563,979.828979 
	C832.714111,991.673340 853.154053,997.599426 874.616089,999.811707 
	C887.515015,1001.141296 900.555420,999.964905 913.305176,996.997375 
	C926.175659,994.001892 938.707947,989.907654 949.942078,982.896118 
	C958.830811,977.348328 967.468201,971.276733 975.618591,964.696228 
	C986.821716,955.651062 986.931824,946.352173 976.660828,936.205994 
	C972.913025,932.503845 968.759277,929.211304 965.031067,925.491028 
	C930.706055,891.239319 896.426270,856.942200 862.158203,822.633484 
	C858.958679,819.430237 855.929688,816.056763 852.536133,812.459839 
	C859.321594,806.205566 865.797058,800.530457 871.924988,794.502075 
	C877.459473,789.057556 882.477051,783.090454 887.958801,777.589172 
	C916.305115,749.141846 944.725525,720.768433 973.129578,692.378723 
	C974.297668,691.211243 975.498718,690.060547 976.790161,689.035278 
	C984.019165,683.296448 987.040100,672.674011 978.851990,665.346924 
	C975.047729,661.942749 971.457092,658.283447 967.508789,655.059204 
	C944.954956,636.641479 918.739929,627.474915 889.962891,626.239746 
	C878.954163,625.767334 867.650574,627.079407 856.792969,629.185181 
	C830.891174,634.208496 808.707092,646.647339 790.092529,665.397095 
	C781.757019,673.793213 773.365845,682.134033 764.500000,691.000000 
M1393.000000,1191.500000 
	C1393.000000,1213.264526 1393.000000,1235.029053 1393.000000,1256.714111 
	C1396.643066,1256.714111 1399.717896,1256.714111 1403.356812,1256.714111 
	C1403.356812,1213.644043 1403.356812,1170.857788 1403.356812,1128.071411 
	C1413.957275,1143.169189 1423.532104,1158.543091 1433.350708,1173.759766 
	C1450.117676,1199.745483 1467.208130,1225.524414 1483.734253,1251.661255 
	C1486.687622,1256.332275 1489.580200,1258.049805 1494.804199,1256.574463 
	C1494.804199,1207.547119 1494.804199,1158.469971 1494.804199,1109.196411 
	C1491.872803,1109.196411 1489.136597,1109.196411 1485.852051,1109.196411 
	C1485.852051,1152.202515 1485.852051,1195.025391 1485.852051,1239.298706 
	C1483.991455,1236.786499 1482.917725,1235.503662 1482.024292,1234.105469 
	C1465.211060,1207.794434 1448.451538,1181.449219 1431.609009,1155.156860 
	C1423.099365,1141.872803 1414.294312,1128.775879 1405.924683,1115.405273 
	C1401.697632,1108.652588 1401.246826,1108.112183 1393.000000,1109.619629 
	C1393.000000,1136.552124 1393.000000,1163.526001 1393.000000,1191.500000 
M1184.039307,1170.354492 
	C1177.825928,1152.852539 1171.593262,1135.357544 1165.407104,1117.845947 
	C1162.062134,1108.377441 1162.088867,1108.265869 1152.596924,1109.117676 
	C1151.319580,1109.232300 1149.533447,1110.697021 1149.080078,1111.937378 
	C1139.462769,1138.256226 1130.007324,1164.634277 1120.510742,1190.997192 
	C1112.651001,1212.816040 1104.779053,1234.630615 1096.713135,1257.000000 
	C1099.279907,1257.000000 1101.418945,1256.797119 1103.502563,1257.051025 
	C1106.133057,1257.371460 1107.213013,1256.107910 1108.011963,1253.861084 
	C1112.947998,1239.978394 1118.149414,1226.185913 1122.805542,1212.211182 
	C1123.730591,1209.434814 1124.841431,1208.972778 1127.223633,1208.977783 
	C1146.380005,1209.017456 1165.537109,1208.939697 1184.691650,1209.121948 
	C1186.125000,1209.135498 1188.353882,1210.578369 1188.839722,1211.872314 
	C1193.397461,1224.010498 1197.715332,1236.240479 1201.980591,1248.486328 
	C1205.024536,1257.226318 1204.941284,1257.258911 1214.007446,1256.950806 
	C1214.283936,1256.941284 1214.551758,1256.679443 1215.061523,1256.409180 
	C1212.868042,1250.272217 1210.666504,1244.107788 1208.461670,1237.944702 
	C1200.480347,1215.633301 1192.497925,1193.322388 1184.039307,1170.354492 
M583.215393,1183.020142 
	C576.221313,1179.175781 568.738892,1177.859863 560.775513,1177.910278 
	C551.874634,1177.966797 542.938049,1177.685303 534.075012,1176.897705 
	C525.562866,1176.141357 517.587036,1169.308960 517.138672,1162.125488 
	C516.570312,1153.020142 516.396667,1143.799194 517.193665,1134.728271 
	C517.838806,1127.386230 522.492310,1121.722778 529.464905,1119.097900 
	C542.763672,1114.091553 556.617798,1115.843018 570.352417,1116.689819 
	C576.828247,1117.089233 583.308594,1117.414062 589.972900,1117.782959 
	C589.728638,1114.463379 591.567749,1110.595093 586.349365,1110.007202 
	C580.353210,1109.331543 574.367737,1108.270020 568.356079,1108.088501 
	C557.867981,1107.771729 547.251770,1107.037842 536.893433,1108.239136 
	C523.385193,1109.806030 512.421387,1114.133545 509.235504,1129.417969 
	C507.086029,1139.730103 507.050446,1150.642212 507.358765,1161.248413 
	C507.547241,1167.731445 510.028137,1174.379639 515.485352,1178.759521 
	C522.935303,1184.738525 531.861877,1186.827637 541.253662,1186.975464 
	C548.915527,1187.096069 556.593689,1186.717896 564.241333,1187.069458 
	C574.427246,1187.537842 584.713318,1191.837158 585.938965,1204.199341 
	C586.782776,1212.709717 586.869873,1221.315552 586.853333,1229.877930 
	C586.848694,1232.282837 585.626038,1234.883911 584.372192,1237.054199 
	C578.550232,1247.130371 568.496033,1249.370361 558.159851,1249.864380 
	C546.025513,1250.444214 533.840576,1250.118896 521.681091,1249.941040 
	C516.847778,1249.870361 512.024109,1249.142456 507.285675,1248.721680 
	C507.285675,1251.696289 507.285675,1253.790039 507.285675,1256.200562 
	C512.300903,1256.477173 517.040039,1256.734131 521.778564,1257.001221 
	C527.695251,1257.334473 533.700073,1257.147705 539.509705,1258.122559 
	C551.899658,1260.201172 563.960632,1258.865845 575.610840,1254.864502 
	C585.479797,1251.475098 593.563293,1245.465576 594.928955,1234.062866 
	C595.767639,1227.060303 595.598572,1219.941406 596.017090,1212.882812 
	C596.717651,1201.066406 593.145569,1191.053711 583.215393,1183.020142 
M786.980530,1247.468262 
	C790.681274,1249.988037 794.084656,1253.232910 798.137085,1254.895752 
	C811.880615,1260.534912 826.245544,1259.951294 840.301758,1256.660278 
	C847.971985,1254.864380 854.753601,1250.660522 859.065735,1243.197144 
	C864.934692,1233.039307 866.185852,1221.848145 866.854370,1210.616455 
	C867.292480,1203.254395 866.908691,1195.725220 865.841064,1188.424683 
	C864.734619,1180.859375 863.114136,1173.183350 860.333374,1166.099365 
	C857.329407,1158.446899 851.037781,1153.519165 842.969727,1150.927490 
	C830.315918,1146.862915 817.469299,1147.248413 804.660645,1149.261475 
	C797.947449,1150.316528 791.720642,1153.169556 786.996521,1158.503662 
	C778.532776,1168.060547 776.782043,1179.977173 776.180969,1191.894287 
	C775.650085,1202.420044 776.064209,1213.088623 777.190857,1223.572754 
	C778.095642,1231.991699 780.536682,1240.291626 786.980530,1247.468262 
M948.948303,1234.506958 
	C945.534546,1226.078003 945.157410,1217.245361 944.969849,1208.000000 
	C947.263794,1208.000000 949.064392,1208.030762 950.863647,1207.995117 
	C967.273376,1207.670166 983.704651,1207.726074 1000.082458,1206.819580 
	C1007.300415,1206.420044 1013.610229,1203.120972 1017.105286,1195.789551 
	C1020.672363,1188.307007 1020.170532,1180.766602 1019.068176,1172.927246 
	C1017.391052,1161.000488 1010.531433,1153.080566 999.118225,1150.039551 
	C987.678650,1146.991333 975.942017,1146.942871 964.485535,1149.192749 
	C954.486267,1151.156372 945.082153,1155.666870 941.558105,1166.209961 
	C938.824036,1174.389771 936.800476,1183.074097 936.249084,1191.649170 
	C935.551514,1202.498291 936.086914,1213.522827 937.184631,1224.360840 
	C938.054626,1232.951050 940.239990,1241.397949 946.580505,1248.187622 
	C954.768250,1256.955566 965.659302,1258.467896 976.410339,1258.772339 
	C990.169189,1259.162231 1003.974792,1257.904297 1017.763672,1257.356323 
	C1017.763672,1254.770752 1017.763672,1253.033569 1017.763672,1250.000122 
	C1001.813904,1250.000122 986.084900,1250.388184 970.386963,1249.858032 
	C960.622864,1249.528076 953.082214,1244.639404 948.948303,1234.506958 
M1249.000000,1130.500000 
	C1249.000000,1123.397705 1249.000000,1116.295532 1249.000000,1109.283203 
	C1245.692505,1109.283203 1242.955322,1109.283203 1240.000000,1109.283203 
	C1240.000000,1111.207275 1240.000000,1112.850342 1240.000000,1114.493286 
	C1240.000000,1151.307739 1239.967896,1188.122192 1240.043945,1224.936401 
	C1240.052734,1229.177856 1240.748291,1233.413330 1240.980103,1237.659546 
	C1241.595459,1248.936401 1251.895752,1257.122437 1263.169922,1257.039062 
	C1282.325806,1256.897339 1301.483276,1257.004639 1320.640137,1256.990479 
	C1322.072754,1256.989380 1323.505249,1256.852783 1324.662231,1256.793213 
	C1324.662231,1253.932007 1324.662231,1251.522827 1324.662231,1249.000000 
	C1306.677734,1249.000000 1289.029175,1249.124390 1271.384644,1248.908203 
	C1267.242310,1248.857544 1262.988159,1248.074097 1259.011475,1246.876831 
	C1254.142944,1245.411011 1251.224731,1241.397827 1250.136597,1236.655884 
	C1249.194580,1232.550659 1249.056396,1228.197266 1249.044922,1223.952393 
	C1248.961304,1193.135132 1249.000000,1162.317505 1249.000000,1130.500000 
M631.000000,1174.501221 
	C631.000000,1192.660156 630.950989,1210.819214 631.045593,1228.977661 
	C631.062500,1232.211548 631.234619,1235.565063 632.095886,1238.651001 
	C634.566772,1247.503906 639.275940,1254.678345 649.225586,1255.949585 
	C656.671692,1256.900757 664.231995,1256.957764 671.718079,1257.411499 
	C672.181213,1250.215088 672.037842,1250.051392 665.969971,1250.001587 
	C664.637268,1249.990601 663.302673,1250.045410 661.971924,1249.993042 
	C647.708740,1249.430908 640.000732,1241.465576 640.000244,1227.304443 
	C639.999390,1205.480469 640.000000,1183.656494 640.000000,1161.832520 
	C640.000000,1160.251709 640.000000,1158.670898 640.000000,1156.714111 
	C651.776672,1156.714111 662.860474,1156.714111 673.652344,1156.714111 
	C673.652344,1153.907959 673.652344,1151.504272 673.652344,1148.716064 
	C662.234680,1148.716064 651.161987,1148.716064 639.726562,1148.716064 
	C639.726562,1138.560303 639.726562,1128.806274 639.726562,1119.156494 
	C637.378540,1119.156494 635.410828,1119.156494 632.959167,1119.156494 
	C632.237000,1129.028809 631.523315,1138.784302 630.786804,1148.852661 
	C625.220093,1149.625854 619.684509,1150.394775 614.282227,1151.145142 
	C614.282227,1153.321533 614.282227,1155.057007 614.282227,1157.171631 
	C619.971863,1157.171631 625.388062,1157.171631 631.000000,1157.171631 
	C631.000000,1162.883057 631.000000,1168.192383 631.000000,1174.501221 
M702.503296,1257.000000 
	C703.934937,1256.926025 705.366516,1256.852051 707.000000,1256.767700 
	C707.000000,1231.951294 707.251831,1207.472900 706.825684,1183.006348 
	C706.717041,1176.768799 709.522339,1173.249756 713.878723,1170.012085 
	C714.655884,1169.434570 715.442932,1168.870117 716.214722,1168.285400 
	C726.734680,1160.313965 738.178955,1155.607178 751.729858,1157.948120 
	C753.748779,1158.296875 755.879822,1157.996582 757.834717,1157.996582 
	C757.834717,1154.640503 757.834717,1152.001831 757.834717,1148.934814 
	C754.846619,1148.614868 751.982727,1148.205688 749.104431,1148.017334 
	C735.701843,1147.140625 724.414307,1151.926392 714.590698,1160.823853 
	C712.223755,1162.967773 709.407471,1164.615723 706.428772,1166.757080 
	C705.778564,1160.133545 705.238098,1154.628662 704.715820,1149.308350 
	C702.308899,1149.308350 700.247314,1149.308350 698.000183,1149.308350 
	C698.000183,1184.426392 698.050415,1219.236694 697.915833,1254.046265 
	C697.903503,1257.232910 699.450439,1257.118164 702.503296,1257.000000 
M1347.000000,1218.500000 
	C1347.000000,1231.268921 1347.000000,1244.037964 1347.000000,1256.712402 
	C1350.311890,1256.712402 1353.051147,1256.712402 1355.717285,1256.712402 
	C1355.717285,1207.349609 1355.717285,1158.274902 1355.717285,1109.287598 
	C1352.688110,1109.287598 1349.948853,1109.287598 1347.000000,1109.287598 
	C1347.000000,1145.549805 1347.000000,1181.524902 1347.000000,1218.500000 
M900.551025,1257.000000 
	C902.304199,1257.000000 904.057373,1257.000000 905.774658,1257.000000 
	C905.774658,1220.706665 905.774658,1185.016479 905.774658,1149.218384 
	C902.812744,1149.218384 900.079712,1149.218384 897.001221,1149.218384 
	C897.001221,1184.492432 896.983887,1219.549438 897.109802,1254.605835 
	C897.112671,1255.406738 898.735291,1256.202026 900.551025,1257.000000 
M896.000000,1114.704834 
	C896.000000,1118.196655 896.168945,1121.698730 895.956970,1125.177612 
	C895.697754,1129.431274 898.486511,1129.112183 901.209290,1128.989258 
	C903.837646,1128.870850 907.248718,1130.055908 907.034241,1125.260376 
	C906.863525,1121.443726 906.864990,1117.606934 907.041748,1113.790771 
	C907.188477,1110.622437 906.585022,1108.601440 902.755615,1108.960205 
	C899.482117,1109.267090 895.158142,1107.784302 896.000000,1114.704834 
z"/>
<path fill="#FFFFFF" opacity="1.000000" stroke="none" 
	d="
M1304.250000,761.750000 
	C1317.697021,775.201172 1330.898438,788.398010 1344.089355,801.605225 
	C1351.358765,808.883545 1351.358765,817.094360 1344.184326,824.319763 
	C1299.371582,869.451538 1254.669189,914.693604 1209.715698,959.684753 
	C1192.263916,977.151184 1171.332275,989.185974 1147.518066,995.659729 
	C1133.567261,999.452087 1119.135498,1001.233276 1104.657593,999.915344 
	C1077.249634,997.420349 1052.152466,988.569763 1030.581665,971.010986 
	C1025.956543,967.246216 1021.285339,963.347961 1017.489258,958.798645 
	C1011.618042,951.762512 1013.064270,945.004578 1018.953979,938.790466 
	C1032.247925,924.764099 1046.089722,911.251770 1059.852905,897.676453 
	C1088.281006,869.636047 1116.803101,841.691101 1145.539185,813.458740 
	C1139.668213,807.479126 1134.142456,801.799500 1128.559326,796.176575 
	C1120.310425,787.868896 1112.019531,779.602844 1103.750000,771.315674 
	C1102.692139,770.255554 1101.665527,769.164246 1100.606567,768.105286 
	C1073.619141,741.117554 1046.628174,714.133362 1019.640564,687.145752 
	C1012.807251,680.312500 1012.889526,671.738037 1019.730957,664.753723 
	C1037.193604,646.926392 1058.480591,635.836487 1082.509033,630.173462 
	C1092.424194,627.836548 1102.792969,626.099060 1112.919067,626.267578 
	C1131.733032,626.580750 1150.116821,629.857666 1167.599365,637.771057 
	C1184.312988,645.336365 1198.604980,655.795715 1211.441040,668.806396 
	C1242.106689,699.889221 1273.124390,730.624451 1304.250000,761.750000 
M1098.506592,657.999817 
	C1081.694214,660.423340 1066.542358,666.798401 1052.604004,676.910889 
	C1053.439087,677.837585 1053.954346,678.464233 1054.525269,679.035217 
	C1118.724609,743.242065 1182.947754,807.425171 1247.069336,871.709534 
	C1250.053711,874.701416 1251.620850,874.017090 1254.217285,871.392273 
	C1272.728760,852.679199 1291.385742,834.110046 1309.988281,815.487000 
	C1310.773682,814.700684 1311.479126,813.834473 1312.226807,812.999939 
	C1311.703003,812.358948 1311.425293,811.952515 1311.083374,811.610474 
	C1268.915283,769.430664 1226.876221,727.120239 1184.428345,685.224060 
	C1177.956421,678.836182 1169.908081,673.835144 1162.026855,669.135071 
	C1150.582031,662.309753 1137.756958,658.642090 1124.620117,657.241272 
	C1116.339478,656.358215 1107.824707,657.669434 1098.506592,657.999817 
M1073.499878,927.999939 
	C1066.328857,935.145691 1059.157715,942.291382 1051.974487,949.449158 
	C1052.950684,950.020081 1053.677612,950.373291 1054.326660,950.835693 
	C1064.230103,957.891235 1075.100830,962.899719 1086.833130,966.000549 
	C1100.971313,969.737244 1115.116089,970.614807 1129.747681,968.181763 
	C1149.074829,964.967712 1166.374878,957.391785 1180.650879,944.489197 
	C1197.421387,929.332092 1212.872192,912.714844 1228.251465,897.373047 
	C1207.419312,876.612305 1186.790771,856.054565 1166.065186,835.400146 
	C1135.673828,865.802795 1104.836914,896.651367 1073.499878,927.999939 
z"/>
<path fill="#FFFFFF" opacity="1.000000" stroke="none" 
	d="
M764.750000,690.750000 
	C773.365845,682.134033 781.757019,673.793213 790.092529,665.397095 
	C808.707092,646.647339 830.891174,634.208496 856.792969,629.185181 
	C867.650574,627.079407 878.954163,625.767334 889.962891,626.239746 
	C918.739929,627.474915 944.954956,636.641479 967.508789,655.059204 
	C971.457092,658.283447 975.047729,661.942749 978.851990,665.346924 
	C987.040100,672.674011 984.019165,683.296448 976.790161,689.035278 
	C975.498718,690.060547 974.297668,691.211243 973.129578,692.378723 
	C944.725525,720.768433 916.305115,749.141846 887.958801,777.589172 
	C882.477051,783.090454 877.459473,789.057556 871.924988,794.502075 
	C865.797058,800.530457 859.321594,806.205566 852.536133,812.459839 
	C855.929688,816.056763 858.958679,819.430237 862.158203,822.633484 
	C896.426270,856.942200 930.706055,891.239319 965.031067,925.491028 
	C968.759277,929.211304 972.913025,932.503845 976.660828,936.205994 
	C986.931824,946.352173 986.821716,955.651062 975.618591,964.696228 
	C967.468201,971.276733 958.830811,977.348328 949.942078,982.896118 
	C938.707947,989.907654 926.175659,994.001892 913.305176,996.997375 
	C900.555420,999.964905 887.515015,1001.141296 874.616089,999.811707 
	C853.154053,997.599426 832.714111,991.673340 814.252563,979.828979 
	C794.823608,967.363770 778.889587,951.137573 763.569397,934.156738 
	C759.754700,929.928528 755.552246,926.049805 751.520447,922.018005 
	C719.117554,889.614746 686.712158,857.213928 654.309082,824.810852 
	C646.749817,817.251648 646.717529,808.785828 654.217163,801.285645 
	C690.977478,764.523132 727.738953,727.761780 764.750000,690.750000 
M925.500061,697.000061 
	C932.165161,690.353333 938.830200,683.706604 946.528015,676.029968 
	C937.015198,671.329285 928.844238,666.426697 920.068970,663.135132 
	C901.690735,656.241333 882.692993,654.915833 863.354919,658.966248 
	C844.752930,662.862427 828.052673,670.846680 814.607178,684.110901 
	C772.513611,725.636963 730.878418,767.627747 689.072510,809.445374 
	C687.934204,810.584167 686.875977,811.803101 685.581299,813.199280 
	C704.902771,832.485413 724.086060,851.437073 742.982300,870.670898 
	C746.508423,874.259949 748.321594,874.377625 751.955750,870.727539 
	C809.541748,812.889954 867.289368,755.213440 925.500061,697.000061 
M899.744202,968.040588 
	C912.324402,967.880005 929.639343,960.774658 945.073242,949.604553 
	C907.016296,911.547241 868.886719,873.417297 831.360596,835.890808 
	C811.041199,856.207642 790.472412,876.773682 769.857178,897.386230 
	C783.172363,910.692078 797.354614,924.545410 811.154663,938.769531 
	C820.013245,947.900146 830.372314,954.877136 841.730042,960.049438 
	C859.869324,968.309875 878.981873,971.882935 899.744202,968.040588 
z"/>
<path fill="#FFFFFF" opacity="1.000000" stroke="none" 
	d="
M1393.000000,1191.000000 
	C1393.000000,1163.526001 1393.000000,1136.552124 1393.000000,1109.619629 
	C1401.246826,1108.112183 1401.697632,1108.652588 1405.924683,1115.405273 
	C1414.294312,1128.775879 1423.099365,1141.872803 1431.609009,1155.156860 
	C1448.451538,1181.449219 1465.211060,1207.794434 1482.024292,1234.105469 
	C1482.917725,1235.503662 1483.991455,1236.786499 1485.852051,1239.298706 
	C1485.852051,1195.025391 1485.852051,1152.202515 1485.852051,1109.196411 
	C1489.136597,1109.196411 1491.872803,1109.196411 1494.804199,1109.196411 
	C1494.804199,1158.469971 1494.804199,1207.547119 1494.804199,1256.574463 
	C1489.580200,1258.049805 1486.687622,1256.332275 1483.734253,1251.661255 
	C1467.208130,1225.524414 1450.117676,1199.745483 1433.350708,1173.759766 
	C1423.532104,1158.543091 1413.957275,1143.169189 1403.356812,1128.071411 
	C1403.356812,1170.857788 1403.356812,1213.644043 1403.356812,1256.714111 
	C1399.717896,1256.714111 1396.643066,1256.714111 1393.000000,1256.714111 
	C1393.000000,1235.029053 1393.000000,1213.264526 1393.000000,1191.000000 
z"/>
<path fill="#FFFFFF" opacity="1.000000" stroke="none" 
	d="
M1184.277588,1170.682861 
	C1192.497925,1193.322388 1200.480347,1215.633301 1208.461670,1237.944702 
	C1210.666504,1244.107788 1212.868042,1250.272217 1215.061523,1256.409180 
	C1214.551758,1256.679443 1214.283936,1256.941284 1214.007446,1256.950806 
	C1204.941284,1257.258911 1205.024536,1257.226318 1201.980591,1248.486328 
	C1197.715332,1236.240479 1193.397461,1224.010498 1188.839722,1211.872314 
	C1188.353882,1210.578369 1186.125000,1209.135498 1184.691650,1209.121948 
	C1165.537109,1208.939697 1146.380005,1209.017456 1127.223633,1208.977783 
	C1124.841431,1208.972778 1123.730591,1209.434814 1122.805542,1212.211182 
	C1118.149414,1226.185913 1112.947998,1239.978394 1108.011963,1253.861084 
	C1107.213013,1256.107910 1106.133057,1257.371460 1103.502563,1257.051025 
	C1101.418945,1256.797119 1099.279907,1257.000000 1096.713135,1257.000000 
	C1104.779053,1234.630615 1112.651001,1212.816040 1120.510742,1190.997192 
	C1130.007324,1164.634277 1139.462769,1138.256226 1149.080078,1111.937378 
	C1149.533447,1110.697021 1151.319580,1109.232300 1152.596924,1109.117676 
	C1162.088867,1108.265869 1162.062134,1108.377441 1165.407104,1117.845947 
	C1171.593262,1135.357544 1177.825928,1152.852539 1184.277588,1170.682861 
M1164.480957,1142.985962 
	C1161.786133,1135.268188 1159.091187,1127.550415 1155.920898,1118.471191 
	C1145.854614,1146.457520 1136.310547,1172.991943 1126.692139,1199.733276 
	C1146.112915,1199.733276 1164.987305,1199.733276 1184.271118,1199.733276 
	C1183.593262,1197.558716 1183.076416,1195.724609 1182.452637,1193.927612 
	C1176.632446,1177.162964 1170.793823,1160.404663 1164.480957,1142.985962 
z"/>
<path fill="#FFFFFF" opacity="1.000000" stroke="none" 
	d="
M583.549622,1183.187256 
	C593.145569,1191.053711 596.717651,1201.066406 596.017090,1212.882812 
	C595.598572,1219.941406 595.767639,1227.060303 594.928955,1234.062866 
	C593.563293,1245.465576 585.479797,1251.475098 575.610840,1254.864502 
	C563.960632,1258.865845 551.899658,1260.201172 539.509705,1258.122559 
	C533.700073,1257.147705 527.695251,1257.334473 521.778564,1257.001221 
	C517.040039,1256.734131 512.300903,1256.477173 507.285675,1256.200562 
	C507.285675,1253.790039 507.285675,1251.696289 507.285675,1248.721680 
	C512.024109,1249.142456 516.847778,1249.870361 521.681091,1249.941040 
	C533.840576,1250.118896 546.025513,1250.444214 558.159851,1249.864380 
	C568.496033,1249.370361 578.550232,1247.130371 584.372192,1237.054199 
	C585.626038,1234.883911 586.848694,1232.282837 586.853333,1229.877930 
	C586.869873,1221.315552 586.782776,1212.709717 585.938965,1204.199341 
	C584.713318,1191.837158 574.427246,1187.537842 564.241333,1187.069458 
	C556.593689,1186.717896 548.915527,1187.096069 541.253662,1186.975464 
	C531.861877,1186.827637 522.935303,1184.738525 515.485352,1178.759521 
	C510.028137,1174.379639 507.547241,1167.731445 507.358765,1161.248413 
	C507.050446,1150.642212 507.086029,1139.730103 509.235504,1129.417969 
	C512.421387,1114.133545 523.385193,1109.806030 536.893433,1108.239136 
	C547.251770,1107.037842 557.867981,1107.771729 568.356079,1108.088501 
	C574.367737,1108.270020 580.353210,1109.331543 586.349365,1110.007202 
	C591.567749,1110.595093 589.728638,1114.463379 589.972900,1117.782959 
	C583.308594,1117.414062 576.828247,1117.089233 570.352417,1116.689819 
	C556.617798,1115.843018 542.763672,1114.091553 529.464905,1119.097900 
	C522.492310,1121.722778 517.838806,1127.386230 517.193665,1134.728271 
	C516.396667,1143.799194 516.570312,1153.020142 517.138672,1162.125488 
	C517.587036,1169.308960 525.562866,1176.141357 534.075012,1176.897705 
	C542.938049,1177.685303 551.874634,1177.966797 560.775513,1177.910278 
	C568.738892,1177.859863 576.221313,1179.175781 583.549622,1183.187256 
z"/>
<path fill="#FFFFFF" opacity="1.000000" stroke="none" 
	d="
M786.714233,1247.217285 
	C780.536682,1240.291626 778.095642,1231.991699 777.190857,1223.572754 
	C776.064209,1213.088623 775.650085,1202.420044 776.180969,1191.894287 
	C776.782043,1179.977173 778.532776,1168.060547 786.996521,1158.503662 
	C791.720642,1153.169556 797.947449,1150.316528 804.660645,1149.261475 
	C817.469299,1147.248413 830.315918,1146.862915 842.969727,1150.927490 
	C851.037781,1153.519165 857.329407,1158.446899 860.333374,1166.099365 
	C863.114136,1173.183350 864.734619,1180.859375 865.841064,1188.424683 
	C866.908691,1195.725220 867.292480,1203.254395 866.854370,1210.616455 
	C866.185852,1221.848145 864.934692,1233.039307 859.065735,1243.197144 
	C854.753601,1250.660522 847.971985,1254.864380 840.301758,1256.660278 
	C826.245544,1259.951294 811.880615,1260.534912 798.137085,1254.895752 
	C794.084656,1253.232910 790.681274,1249.988037 786.714233,1247.217285 
M857.000000,1213.577026 
	C858.907349,1201.455566 857.572571,1189.456665 854.891602,1177.667236 
	C852.696899,1168.016113 847.264343,1160.794312 837.072266,1157.936279 
	C826.885010,1155.079468 816.596924,1155.226196 806.485229,1157.361206 
	C798.172668,1159.116211 791.567383,1164.233154 789.243103,1172.720581 
	C787.164978,1180.309448 785.449585,1188.222290 785.229553,1196.038818 
	C784.949097,1205.998169 785.558838,1216.134399 787.202576,1225.957031 
	C789.141724,1237.545044 794.841980,1246.828125 807.761230,1249.328125 
	C816.641235,1251.046387 825.415466,1251.234253 834.349365,1249.348022 
	C840.666870,1248.014282 846.454163,1245.701172 849.785950,1240.268188 
	C854.552002,1232.496460 857.081909,1223.795898 857.000000,1213.577026 
z"/>
<path fill="#FFFFFF" opacity="1.000000" stroke="none" 
	d="
M948.972778,1234.909668 
	C953.082214,1244.639404 960.622864,1249.528076 970.386963,1249.858032 
	C986.084900,1250.388184 1001.813904,1250.000122 1017.763672,1250.000122 
	C1017.763672,1253.033569 1017.763672,1254.770752 1017.763672,1257.356323 
	C1003.974792,1257.904297 990.169189,1259.162231 976.410339,1258.772339 
	C965.659302,1258.467896 954.768250,1256.955566 946.580505,1248.187622 
	C940.239990,1241.397949 938.054626,1232.951050 937.184631,1224.360840 
	C936.086914,1213.522827 935.551514,1202.498291 936.249084,1191.649170 
	C936.800476,1183.074097 938.824036,1174.389771 941.558105,1166.209961 
	C945.082153,1155.666870 954.486267,1151.156372 964.485535,1149.192749 
	C975.942017,1146.942871 987.678650,1146.991333 999.118225,1150.039551 
	C1010.531433,1153.080566 1017.391052,1161.000488 1019.068176,1172.927246 
	C1020.170532,1180.766602 1020.672363,1188.307007 1017.105286,1195.789551 
	C1013.610229,1203.120972 1007.300415,1206.420044 1000.082458,1206.819580 
	C983.704651,1207.726074 967.273376,1207.670166 950.863647,1207.995117 
	C949.064392,1208.030762 947.263794,1208.000000 944.969849,1208.000000 
	C945.157410,1217.245361 945.534546,1226.078003 948.972778,1234.909668 
M1010.999939,1177.799561 
	C1010.668701,1176.399048 1010.188538,1175.015259 1010.030457,1173.595459 
	C1009.026611,1164.581177 1003.717346,1158.752319 995.254822,1157.338135 
	C986.726807,1155.913208 977.794495,1155.454590 969.201660,1156.274292 
	C960.392151,1157.114990 952.535278,1161.275757 949.247742,1170.488647 
	C945.784790,1180.193115 944.767273,1190.311035 945.045288,1200.998291 
	C960.622009,1200.998291 975.882202,1201.336060 991.111877,1200.803589 
	C996.029724,1200.631714 1001.430176,1199.095581 1005.611938,1196.546509 
	C1012.113525,1192.583374 1011.049988,1185.262939 1010.999939,1177.799561 
z"/>
<path fill="#FFFFFF" opacity="1.000000" stroke="none" 
	d="
M1249.000000,1131.000000 
	C1249.000000,1162.317505 1248.961304,1193.135132 1249.044922,1223.952393 
	C1249.056396,1228.197266 1249.194580,1232.550659 1250.136597,1236.655884 
	C1251.224731,1241.397827 1254.142944,1245.411011 1259.011475,1246.876831 
	C1262.988159,1248.074097 1267.242310,1248.857544 1271.384644,1248.908203 
	C1289.029175,1249.124390 1306.677734,1249.000000 1324.662231,1249.000000 
	C1324.662231,1251.522827 1324.662231,1253.932007 1324.662231,1256.793213 
	C1323.505249,1256.852783 1322.072754,1256.989380 1320.640137,1256.990479 
	C1301.483276,1257.004639 1282.325806,1256.897339 1263.169922,1257.039062 
	C1251.895752,1257.122437 1241.595459,1248.936401 1240.980103,1237.659546 
	C1240.748291,1233.413330 1240.052734,1229.177856 1240.043945,1224.936401 
	C1239.967896,1188.122192 1240.000000,1151.307739 1240.000000,1114.493286 
	C1240.000000,1112.850342 1240.000000,1111.207275 1240.000000,1109.283203 
	C1242.955322,1109.283203 1245.692505,1109.283203 1249.000000,1109.283203 
	C1249.000000,1116.295532 1249.000000,1123.397705 1249.000000,1131.000000 
z"/>
<path fill="#FFFFFF" opacity="1.000000" stroke="none" 
	d="
M631.000000,1174.001465 
	C631.000000,1168.192383 631.000000,1162.883057 631.000000,1157.171631 
	C625.388062,1157.171631 619.971863,1157.171631 614.282227,1157.171631 
	C614.282227,1155.057007 614.282227,1153.321533 614.282227,1151.145142 
	C619.684509,1150.394775 625.220093,1149.625854 630.786804,1148.852661 
	C631.523315,1138.784302 632.237000,1129.028809 632.959167,1119.156494 
	C635.410828,1119.156494 637.378540,1119.156494 639.726562,1119.156494 
	C639.726562,1128.806274 639.726562,1138.560303 639.726562,1148.716064 
	C651.161987,1148.716064 662.234680,1148.716064 673.652344,1148.716064 
	C673.652344,1151.504272 673.652344,1153.907959 673.652344,1156.714111 
	C662.860474,1156.714111 651.776672,1156.714111 640.000000,1156.714111 
	C640.000000,1158.670898 640.000000,1160.251709 640.000000,1161.832520 
	C640.000000,1183.656494 639.999390,1205.480469 640.000244,1227.304443 
	C640.000732,1241.465576 647.708740,1249.430908 661.971924,1249.993042 
	C663.302673,1250.045410 664.637268,1249.990601 665.969971,1250.001587 
	C672.037842,1250.051392 672.181213,1250.215088 671.718079,1257.411499 
	C664.231995,1256.957764 656.671692,1256.900757 649.225586,1255.949585 
	C639.275940,1254.678345 634.566772,1247.503906 632.095886,1238.651001 
	C631.234619,1235.565063 631.062500,1232.211548 631.045593,1228.977661 
	C630.950989,1210.819214 631.000000,1192.660156 631.000000,1174.001465 
z"/>
<path fill="#FFFFFF" opacity="1.000000" stroke="none" 
	d="
M702.027222,1257.000000 
	C699.450439,1257.118164 697.903503,1257.232910 697.915833,1254.046265 
	C698.050415,1219.236694 698.000183,1184.426392 698.000183,1149.308350 
	C700.247314,1149.308350 702.308899,1149.308350 704.715820,1149.308350 
	C705.238098,1154.628662 705.778564,1160.133545 706.428772,1166.757080 
	C709.407471,1164.615723 712.223755,1162.967773 714.590698,1160.823853 
	C724.414307,1151.926392 735.701843,1147.140625 749.104431,1148.017334 
	C751.982727,1148.205688 754.846619,1148.614868 757.834717,1148.934814 
	C757.834717,1152.001831 757.834717,1154.640503 757.834717,1157.996582 
	C755.879822,1157.996582 753.748779,1158.296875 751.729858,1157.948120 
	C738.178955,1155.607178 726.734680,1160.313965 716.214722,1168.285400 
	C715.442932,1168.870117 714.655884,1169.434570 713.878723,1170.012085 
	C709.522339,1173.249756 706.717041,1176.768799 706.825684,1183.006348 
	C707.251831,1207.472900 707.000000,1231.951294 707.000000,1256.767700 
	C705.366516,1256.852051 703.934937,1256.926025 702.027222,1257.000000 
z"/>
<path fill="#FFFFFF" opacity="1.000000" stroke="none" 
	d="
M1347.000000,1218.000000 
	C1347.000000,1181.524902 1347.000000,1145.549805 1347.000000,1109.287598 
	C1349.948853,1109.287598 1352.688110,1109.287598 1355.717285,1109.287598 
	C1355.717285,1158.274902 1355.717285,1207.349609 1355.717285,1256.712402 
	C1353.051147,1256.712402 1350.311890,1256.712402 1347.000000,1256.712402 
	C1347.000000,1244.037964 1347.000000,1231.268921 1347.000000,1218.000000 
z"/>
<path fill="#FFFFFF" opacity="1.000000" stroke="none" 
	d="
M900.076660,1257.000000 
	C898.735291,1256.202026 897.112671,1255.406738 897.109802,1254.605835 
	C896.983887,1219.549438 897.001221,1184.492432 897.001221,1149.218384 
	C900.079712,1149.218384 902.812744,1149.218384 905.774658,1149.218384 
	C905.774658,1185.016479 905.774658,1220.706665 905.774658,1257.000000 
	C904.057373,1257.000000 902.304199,1257.000000 900.076660,1257.000000 
z"/>
<path fill="#FFFFFF" opacity="1.000000" stroke="none" 
	d="
M896.000000,1114.234253 
	C895.158142,1107.784302 899.482117,1109.267090 902.755615,1108.960205 
	C906.585022,1108.601440 907.188477,1110.622437 907.041748,1113.790771 
	C906.864990,1117.606934 906.863525,1121.443726 907.034241,1125.260376 
	C907.248718,1130.055908 903.837646,1128.870850 901.209290,1128.989258 
	C898.486511,1129.112183 895.697754,1129.431274 895.956970,1125.177612 
	C896.168945,1121.698730 896.000000,1118.196655 896.000000,1114.234253 
z"/>
<path fill="#000000" opacity="1.000000" stroke="none" 
	d="
M1098.960815,657.998047 
	C1107.824707,657.669434 1116.339478,656.358215 1124.620117,657.241272 
	C1137.756958,658.642090 1150.582031,662.309753 1162.026855,669.135071 
	C1169.908081,673.835144 1177.956421,678.836182 1184.428345,685.224060 
	C1226.876221,727.120239 1268.915283,769.430664 1311.083374,811.610474 
	C1311.425293,811.952515 1311.703003,812.358948 1312.226807,812.999939 
	C1311.479126,813.834473 1310.773682,814.700684 1309.988281,815.487000 
	C1291.385742,834.110046 1272.728760,852.679199 1254.217285,871.392273 
	C1251.620850,874.017090 1250.053711,874.701416 1247.069336,871.709534 
	C1182.947754,807.425171 1118.724609,743.242065 1054.525269,679.035217 
	C1053.954346,678.464233 1053.439087,677.837585 1052.604004,676.910889 
	C1066.542358,666.798401 1081.694214,660.423340 1098.960815,657.998047 
z"/>
<path fill="#000000" opacity="1.000000" stroke="none" 
	d="
M1073.749878,927.749939 
	C1104.836914,896.651367 1135.673828,865.802795 1166.065186,835.400146 
	C1186.790771,856.054565 1207.419312,876.612305 1228.251465,897.373047 
	C1212.872192,912.714844 1197.421387,929.332092 1180.650879,944.489197 
	C1166.374878,957.391785 1149.074829,964.967712 1129.747681,968.181763 
	C1115.116089,970.614807 1100.971313,969.737244 1086.833130,966.000549 
	C1075.100830,962.899719 1064.230103,957.891235 1054.326660,950.835693 
	C1053.677612,950.373291 1052.950684,950.020081 1051.974487,949.449158 
	C1059.157715,942.291382 1066.328857,935.145691 1073.749878,927.749939 
z"/>
<path fill="#000000" opacity="1.000000" stroke="none" 
	d="
M925.250000,697.250000 
	C867.289368,755.213440 809.541748,812.889954 751.955750,870.727539 
	C748.321594,874.377625 746.508423,874.259949 742.982300,870.670898 
	C724.086060,851.437073 704.902771,832.485413 685.581299,813.199280 
	C686.875977,811.803101 687.934204,810.584167 689.072510,809.445374 
	C730.878418,767.627747 772.513611,725.636963 814.607178,684.110901 
	C828.052673,670.846680 844.752930,662.862427 863.354919,658.966248 
	C882.692993,654.915833 901.690735,656.241333 920.068970,663.135132 
	C928.844238,666.426697 937.015198,671.329285 946.528015,676.029968 
	C938.830200,683.706604 932.165161,690.353333 925.250000,697.250000 
z"/>
<path fill="#000000" opacity="1.000000" stroke="none" 
	d="
M899.361267,968.284363 
	C878.981873,971.882935 859.869324,968.309875 841.730042,960.049438 
	C830.372314,954.877136 820.013245,947.900146 811.154663,938.769531 
	C797.354614,924.545410 783.172363,910.692078 769.857178,897.386230 
	C790.472412,876.773682 811.041199,856.207642 831.360596,835.890808 
	C868.886719,873.417297 907.016296,911.547241 945.073242,949.604553 
	C929.639343,960.774658 912.324402,967.880005 899.361267,968.284363 
z"/>
<path fill="#000000" opacity="1.000000" stroke="none" 
	d="
M1164.720703,1143.315186 
	C1170.793823,1160.404663 1176.632446,1177.162964 1182.452637,1193.927612 
	C1183.076416,1195.724609 1183.593262,1197.558716 1184.271118,1199.733276 
	C1164.987305,1199.733276 1146.112915,1199.733276 1126.692139,1199.733276 
	C1136.310547,1172.991943 1145.854614,1146.457520 1155.920898,1118.471191 
	C1159.091187,1127.550415 1161.786133,1135.268188 1164.720703,1143.315186 
z"/>
<path fill="#000000" opacity="1.000000" stroke="none" 
	d="
M857.000000,1214.045898 
	C857.081909,1223.795898 854.552002,1232.496460 849.785950,1240.268188 
	C846.454163,1245.701172 840.666870,1248.014282 834.349365,1249.348022 
	C825.415466,1251.234253 816.641235,1251.046387 807.761230,1249.328125 
	C794.841980,1246.828125 789.141724,1237.545044 787.202576,1225.957031 
	C785.558838,1216.134399 784.949097,1205.998169 785.229553,1196.038818 
	C785.449585,1188.222290 787.164978,1180.309448 789.243103,1172.720581 
	C791.567383,1164.233154 798.172668,1159.116211 806.485229,1157.361206 
	C816.596924,1155.226196 826.885010,1155.079468 837.072266,1157.936279 
	C847.264343,1160.794312 852.696899,1168.016113 854.891602,1177.667236 
	C857.572571,1189.456665 858.907349,1201.455566 857.000000,1214.045898 
z"/>
<path fill="#000000" opacity="1.000000" stroke="none" 
	d="
M1011.000000,1178.262817 
	C1011.049988,1185.262939 1012.113525,1192.583374 1005.611938,1196.546509 
	C1001.430176,1199.095581 996.029724,1200.631714 991.111877,1200.803589 
	C975.882202,1201.336060 960.622009,1200.998291 945.045288,1200.998291 
	C944.767273,1190.311035 945.784790,1180.193115 949.247742,1170.488647 
	C952.535278,1161.275757 960.392151,1157.114990 969.201660,1156.274292 
	C977.794495,1155.454590 986.726807,1155.913208 995.254822,1157.338135 
	C1003.717346,1158.752319 1009.026611,1164.581177 1010.030457,1173.595459 
	C1010.188538,1175.015259 1010.668701,1176.399048 1011.000000,1178.262817 
z"/>
</svg>